Coordinates
version=1
nRows=15
nColumns=46
inDegrees=yes

Units are S.I. units (second, meters, Newtons, ...)
Angles are in degrees.

endheader
time	pelvis_tilt	pelvis_list	pelvis_rotation	pelvis_tx	pelvis_ty	pelvis_tz	bb_angle	bb_tx	bb_ty	bb_tz	hip_flexion_r	hip_adduction_r	hip_rotation_r	knee_angle_r	knee_angle_r_beta	ankle_angle_r	subtalar_angle_r	mtp_angle_r	crank_angle_r	hip_flexion_l	hip_adduction_l	hip_rotation_l	knee_angle_l	knee_angle_l_beta	ankle_angle_l	subtalar_angle_l	mtp_angle_l	crank_angle_l	lumbar_extension	lumbar_bending	lumbar_rotation	arm_flex_r	arm_add_r	arm_rot_r	elbow_flex_r	pro_sup_r	wrist_flex_r	wrist_dev_r	arm_flex_l	arm_add_l	arm_rot_l	elbow_flex_l	pro_sup_l	wrist_flex_l	wrist_dev_l
      7.50500000	    -19.35545044	     -6.27786496	     -6.02226346	      0.21185999	      1.04958220	     -0.23998410	      0.00000000	      0.50000000	      0.00000000	      0.25000000	     88.09277880	      3.84944801	      2.03360239	    104.28026682	      1.82003400	     19.32595161	      4.27171764	      0.00000000	      0.00000000	     42.76730475	    -16.07131222	     -5.16528875	     50.66394475	      0.88425265	     -6.46795851	     -2.41328752	      0.00000000	      0.00000000	    -63.56472919	      9.42286788	      7.27716984	     89.69600538	    -14.29500590	     36.22334568	     69.37040692	     31.63477389	      0.00000000	      0.00000000	     76.64421548	    -41.79364933	     31.30592497	     77.02442502	     45.73491865	      0.00000000	      0.00000000
      7.51000000	    -19.15749899	     -6.26604216	     -5.35668296	      0.21163556	      1.05004382	     -0.23914976	      0.00000000	      0.50000000	      0.00000000	      0.25000000	     87.05177008	      3.63399011	      2.04201820	    102.28652689	      1.78523667	     20.19015257	      3.66631584	      0.00000000	      0.00000000	     43.38420419	    -15.89805759	     -4.52468441	     52.94154268	      0.92400423	     -6.16231581	     -2.51770283	      0.00000000	      0.00000000	    -63.71623915	      9.47891745	      6.97216359	     89.69181990	    -14.50955035	     36.03141324	     69.31724635	     31.57252268	      0.00000000	      0.00000000	     77.03865906	    -41.37017394	     31.14471691	     76.88289473	     45.71651523	      0.00000000	      0.00000000
      7.51500000	    -18.92608583	     -6.11260050	     -4.72885730	      0.21140768	      1.05049303	     -0.23844183	      0.00000000	      0.50000000	      0.00000000	      0.25000000	     85.93578859	      3.26686809	      2.04191487	    100.18737612	      1.74859958	     20.87331652	      3.15529303	      0.00000000	      0.00000000	     43.97510748	    -15.55828745	     -3.92200916	     55.26006584	      0.96447009	     -5.80251292	     -2.84782957	      0.00000000	      0.00000000	    -63.89985887	      9.34811746	      6.46720995	     89.68568069	    -14.84500409	     35.86986456	     69.32097866	     31.53892305	      0.00000000	      0.00000000	     77.56858773	    -41.06345853	     31.05678048	     76.92302036	     45.72697028	      0.00000000	      0.00000000
      7.52000000	    -18.63654957	     -5.86579726	     -4.10829887	      0.21122514	      1.05082734	     -0.23767297	      0.00000000	      0.50000000	      0.00000000	      0.25000000	     84.67691827	      2.89720982	      2.10456095	     97.99595314	      1.71035204	     21.52728738	      2.53481920	      0.00000000	      0.00000000	     44.56951806	    -15.17895922	     -3.43894735	     57.71961463	      1.00739732	     -5.48394460	     -3.17744229	      0.00000000	      0.00000000	    -64.09793302	      9.12079803	      5.83076954	     89.67307682	    -15.19275286	     35.69701707	     69.38308613	     31.52904621	      0.00000000	      0.00000000	     78.05515285	    -40.83779446	     31.01075422	     77.00263115	     45.74096160	      0.00000000	      0.00000000
      7.52500000	    -18.40866940	     -6.01670306	     -3.35026090	      0.21086370	      1.05106393	     -0.23699155	      0.00000000	      0.50000000	      0.00000000	      0.25000000	     83.32412729	      2.59941334	      1.81323028	     95.59602788	      1.66846544	     21.77028555	      1.29962452	      0.00000000	      0.00000000	     45.43491291	    -15.00807610	     -2.39685858	     60.28685246	      1.05220407	     -4.88368162	     -3.12416593	      0.00000000	      0.00000000	    -64.39126733	      9.12361996	      5.87450620	     89.66070055	    -16.26310408	     35.44432185	     70.01870255	     31.58311073	      0.00000000	      0.00000000	     79.13120848	    -40.26127342	     31.81517723	     76.92465618	     45.84438831	      0.00000000	      0.00000000
      7.53000000	    -17.99036301	     -5.64187979	     -2.65673687	      0.21080197	      1.05137246	     -0.23638801	      0.00000000	      0.50000000	      0.00000000	      0.25000000	     81.81978513	      2.17323237	      2.10654954	     93.33681786	      1.62903478	     22.17621134	      0.87549940	      0.00000000	      0.00000000	     45.95796812	    -14.41878326	     -1.89315600	     62.81694619	      1.09636254	     -4.46859964	     -3.48824147	      0.00000000	      0.00000000	    -64.70603199	      8.81658175	      5.11512051	     89.64319202	    -16.69273174	     35.41618419	     70.00530600	     31.57795883	      0.00000000	      0.00000000	     79.78664841	    -39.98480949	     31.77694520	     77.01903433	     45.85891188	      0.00000000	      0.00000000
      7.53500000	    -17.56024737	     -5.40265888	     -1.86349310	      0.21060780	      1.05158563	     -0.23594679	      0.00000000	      0.50000000	      0.00000000	      0.25000000	     80.23565016	      1.65769459	      2.14142228	     90.96517941	      1.58764189	     22.30346109	      0.14388498	      0.00000000	      0.00000000	     46.56697002	    -13.82861132	     -1.08979067	     65.39033000	      1.14127656	     -3.95899608	     -3.77451260	      0.00000000	      0.00000000	    -65.08650740	      8.64359937	      4.51239770	     89.63239209	    -17.28236526	     35.33849486	     70.13749552	     31.60333225	      0.00000000	      0.00000000	     80.63106894	    -39.63563316	     31.96570202	     77.13072012	     45.89769540	      0.00000000	      0.00000000
      7.54000000	    -17.15413994	     -5.08117488	     -1.12021621	      0.21036021	      1.05156819	     -0.23533474	      0.00000000	      0.50000000	      0.00000000	      0.25000000	     78.69309967	      1.17456950	      2.25486617	     88.60551594	      1.54645799	     22.08416014	     -0.85068175	      0.00000000	      0.00000000	     47.23617469	    -13.22591213	     -0.40888326	     68.00742763	      1.18695353	     -3.44001262	     -3.77746481	      0.00000000	      0.00000000	    -65.42625261	      8.08685704	      4.83981287	     89.59294295	    -20.23151823	     35.68226293	     71.82135492	     32.07502010	      0.00000000	      0.00000000	     82.84306175	    -37.88138732	     34.51040101	     75.70739179	     46.00572547	      0.00000000	      0.00000000
      7.54500000	    -16.72293340	     -4.62268863	     -0.33258918	      0.21026905	      1.05160045	     -0.23489622	      0.00000000	      0.50000000	      0.00000000	      0.25000000	     77.07281560	      0.57613679	      2.50294912	     86.24358265	      1.50523448	     21.83225205	     -1.56033737	      0.00000000	      0.00000000	     47.83868285	    -12.43818445	      0.20760804	     70.53210339	      1.23101743	     -2.91701785	     -3.84100899	      0.00000000	      0.00000000	    -65.76687314	      7.79890445	      3.99299758	     89.57129723	    -20.66703916	     35.55445892	     71.82259361	     32.09550765	      0.00000000	      0.00000000	     83.50385992	    -37.54343845	     34.49338181	     75.95303022	     46.04904048	      0.00000000	      0.00000000
      7.55000000	    -16.35021527	     -4.04552913	      0.28701476	      0.21006230	      1.05115252	     -0.23434885	      0.00000000	      0.50000000	      0.00000000	      0.25000000	     75.63683800	      0.02259922	      2.85827443	     84.00719127	      1.46620208	     21.34123067	     -1.96693295	      0.00000000	      0.00000000	     48.54065096	    -11.71385496	      0.52806802	     73.22075193	      1.27794320	     -2.37839647	     -4.00037354	      0.00000000	      0.00000000	    -66.07722620	      7.32196304	      3.11582830	     89.53191403	    -21.12778085	     35.39951521	     71.81472508	     32.10436760	      0.00000000	      0.00000000	     84.03472856	    -37.28472601	     34.49128457	     76.08545108	     46.06826875	      0.00000000	      0.00000000
      7.55500000	    -15.97533044	     -3.64935179	      1.08266253	      0.20973867	      1.05085440	     -0.23402937	      0.00000000	      0.50000000	      0.00000000	      0.25000000	     74.09461865	     -0.62255696	      2.94268042	     81.72635910	      1.42639405	     20.50578610	     -3.00606879	      0.00000000	      0.00000000	     49.31347711	    -10.92322503	      1.29405094	     75.79285221	      1.32283482	     -1.80107025	     -3.62144144	      0.00000000	      0.00000000	    -66.39540001	      7.02756680	      2.46885146	     89.51860369	    -21.95607047	     35.17641659	     72.07809711	     32.19534204	      0.00000000	      0.00000000	     84.92901002	    -36.78871165	     34.85592038	     76.27261604	     46.12565616	      0.00000000	      0.00000000
      7.56000000	    -15.67941144	     -3.21251807	      1.73940059	      0.20945740	      1.05017193	     -0.23355688	      0.00000000	      0.50000000	      0.00000000	      0.25000000	     72.66782934	     -1.15756015	      3.13387745	     79.48584722	      1.38728974	     19.56903474	     -3.85811333	      0.00000000	      0.00000000	     50.20048771	    -10.23808844	      1.85293199	     78.44207558	      1.36907249	     -1.11826501	     -3.15357913	      0.00000000	      0.00000000	    -66.67041249	      6.47570281	      2.61081967	     89.44260131	    -24.71466178	     35.64967143	     73.72789146	     32.85509727	      0.00000000	      0.00000000	     86.43307340	    -35.43026346	     36.61327827	     75.39745222	     46.09609845	      0.00000000	      0.00000000
      7.56500000	    -15.35549948	     -2.59981924	      2.55042509	      0.20916276	      1.04950935	     -0.23354822	      0.00000000	      0.50000000	      0.00000000	      0.25000000	     71.21559048	     -2.00938618	      3.40357833	     77.39520988	      1.35080124	     18.72391560	     -4.27161535	      0.00000000	      0.00000000	     51.03747051	     -9.17951623	      2.39232405	     80.95448152	      1.41292225	     -0.95186505	     -2.93468081	      0.00000000	      0.00000000	    -66.90370149	      6.20121567	      1.75908704	     89.40178689	    -25.35954182	     35.54002356	     73.74124246	     32.92135949	      0.00000000	      0.00000000	     86.93346646	    -34.93594132	     36.65600459	     75.43653347	     46.08785686	      0.00000000	      0.00000000
      7.57000000	    -15.12431653	     -1.94294491	      3.10653475	      0.20904065	      1.04871620	     -0.23318606	      0.00000000	      0.50000000	      0.00000000	      0.25000000	     69.84031543	     -2.61858210	      3.88664634	     75.32022596	      1.31458594	     18.05843141	     -4.27378739	      0.00000000	      0.00000000	     51.92208615	     -8.33504414	      2.64828814	     83.43876650	      1.45628120	     -0.70034676	     -2.94064193	      0.00000000	      0.00000000	    -67.01113223	      5.70634125	      0.85008602	     89.32679772	    -25.75118966	     35.43497893	     73.76695534	     32.94189233	      0.00000000	      0.00000000	     87.13693285	    -34.63593989	     36.72509052	     75.47046483	     46.09253896	      0.00000000	      0.00000000
      7.57500000	    -14.90830894	     -1.49050818	      3.91240813	      0.20862243	      1.04777479	     -0.23334406	      0.00000000	      0.50000000	      0.00000000	      0.25000000	     68.47026853	     -3.45352283	      3.87526782	     73.21945787	      1.27792062	     16.56001020	     -5.32109142	      0.00000000	      0.00000000	     52.99468127	     -7.39727990	      3.29236992	     85.99121790	      1.50082988	      0.09465969	     -2.27371161	      0.00000000	      0.00000000	    -67.20297200	      5.37830287	      1.38583109	     89.23911710	    -29.32566480	     36.15785958	     75.59186712	     34.19604627	      0.00000000	      0.00000000	     88.09158266	    -32.04257560	     37.17207631	     74.13678394	     45.56859070	      0.00000000	      0.00000000
